# xmcd
# 
# Track frame offsets:
#     150
#     22257
#     41466
#     57726
#     78291
#     93953
#     109093
#     137051
#     156117
#     174100
#     197460
#     219216
#     238789
#     255890
# 
# Disc length: 3606
# 
# Revision: 0
# Processed by: cddbd v1.5.2PL0 Copyright (c) Steve Scherf et al.
# Submitted via: fre:ac v1.0.31
# 
DISCID=ae0e140e
DTITLE=The Calvin Owens Show - Houston Is A Place To Be
DYEAR=2007
DGENRE=Blues
TTITLE0=Sawdust Alley 2006
TTITLE1=Houston Is A Place To Be
TTITLE2=Oh I Wish
TTITLE3=Lose A Good Thing
TTITLE4=Francine
TTITLE5=Everybody's Got A Blues Song To Sing
TTITLE6=Why Do You Keep Coming Back
TTITLE7=My Money Left Me
TTITLE8=Step On It
TTITLE9=Somebody Tell Me
TTITLE10=The Highway Is My Way
TTITLE11=What Was I Thinkin'
TTITLE12=You Are My Baby Doll
TTITLE13=Winter Wonderland
EXTD=
EXTT0=
EXTT1=
EXTT2=
EXTT3=
EXTT4=
EXTT5=
EXTT6=
EXTT7=
EXTT8=
EXTT9=
EXTT10=
EXTT11=
EXTT12=
EXTT13=
PLAYORDER=
